<?xml version="1.0" encoding="UTF-8" standalone="no"?>
<!-- Created with Inkscape (http://www.inkscape.org/) -->

<svg
   xmlns:dc="http://purl.org/dc/elements/1.1/"
   xmlns:cc="http://creativecommons.org/ns#"
   xmlns:rdf="http://www.w3.org/1999/02/22-rdf-syntax-ns#"
   xmlns:svg="http://www.w3.org/2000/svg"
   xmlns="http://www.w3.org/2000/svg"
   xmlns:sodipodi="http://sodipodi.sourceforge.net/DTD/sodipodi-0.dtd"
   xmlns:inkscape="http://www.inkscape.org/namespaces/inkscape"
   id="svg2"
   version="1.1"
   inkscape:version="0.48.4 r9939"
   width="750"
   height="633"
   sodipodi:docname="empire map _ better working names_removed haha layers.svg">
  <metadata
     id="metadata8">
    <rdf:RDF>
      <cc:Work
         rdf:about="">
        <dc:format>image/svg+xml</dc:format>
        <dc:type
           rdf:resource="http://purl.org/dc/dcmitype/StillImage" />
        <dc:title></dc:title>
      </cc:Work>
    </rdf:RDF>
  </metadata>
  <defs
     id="defs6" />
  <sodipodi:namedview
     pagecolor="#ffffff"
     bordercolor="#666666"
     borderopacity="1"
     objecttolerance="10"
     gridtolerance="10"
     guidetolerance="10"
     inkscape:pageopacity="0"
     inkscape:pageshadow="2"
     inkscape:window-width="1680"
     inkscape:window-height="1028"
     id="namedview4"
     showgrid="false"
     inkscape:zoom="1"
     inkscape:cx="371.47126"
     inkscape:cy="286.53821"
     inkscape:window-x="-8"
     inkscape:window-y="-8"
     inkscape:window-maximized="1"
     inkscape:current-layer="layer3" />
  <g
     inkscape:groupmode="layer"
     id="layer3"
     inkscape:label="Base Layer"
     style="display:none">
    <path
       style="fill:#000000;display:inline"
       d="m 182.5,629.64816 c -2.2,-1.29131 -17.95,-10.46947 -35,-20.39591 l -31,-18.04807 -18.5,1.35595 c -27.934425,2.04743 -45.825736,3.41502 -52.585162,4.01954 l -6.085162,0.54421 -14.164838,-16.50169 C 17.374177,571.54627 11,563.6373 11,563.04671 c 0,-1.0576 23.532168,-47.59086 25.061321,-49.55705 0.432171,-0.55568 7.789505,-15.77377 16.349631,-33.81797 l 15.563866,-32.80764 1.512591,-14.40358 C 71.442225,413.84581 71.611188,415.22888 67.25,414.14572 65.1875,413.63348 51.125,410.20535 36,406.52767 20.875,402.84999 6.925,399.43969 5,398.94924 L 1.5,398.0575 1.2150295,351.27875 0.93005907,304.5 9.7150295,299.01191 C 14.546763,295.99346 23,290.59346 28.5,287.01191 l 10,-6.51191 -3.682024,-25 c -2.025113,-13.75 -3.712613,-26.84205 -3.75,-29.09344 L 31,222.31312 46.75,221.65989 c 8.6625,-0.35927 21.15,-0.71062 27.75,-0.78077 6.6,-0.0702 15.110649,-0.40915 18.912553,-0.75333 L 100.32511,219.5 78.912553,200.38421 C 67.135649,189.87053 53.369805,177.72053 48.32179,173.38421 40.117412,166.33654 39.1331,165.12864 39.044811,162 c -0.05432,-1.925 1.093785,-18.8 2.551352,-37.5 l 2.650121,-34 10.411815,-29.951623 C 60.384597,44.074984 65.21115,30.455516 65.383773,30.282894 65.556396,30.110271 81.596632,23.433603 101.02874,15.445853 L 136.35985,0.92267284 182.42993,1.322049 C 207.76847,1.5417058 242,2.2836568 258.5,2.9708289 l 30,1.2494038 38.11883,19.3898833 C 347.58418,34.274552 364.95484,43 365.2203,43 c 0.26545,0 0.75791,-3.900706 1.09436,-8.668236 0.37917,-5.372838 1.10093,-8.983271 1.89853,-9.496907 0.70775,-0.45577 3.76181,-0.58351 6.78681,-0.283869 3.025,0.299642 17.65,1.371827 32.5,2.382634 l 27,1.837829 28,6.765525 c 25.78167,6.229519 28.42883,7.070447 33.41279,10.614275 C 498.88983,48.268063 501.72925,50 502.22262,50 c 0.49337,0 6.88742,-5.2875 14.20901,-11.75 L 529.74361,26.5 554.1218,18.292975 578.5,10.08595 l 37.80954,3.816565 c 20.79525,2.099111 38.18477,4.217272 38.64338,4.707025 0.45861,0.489753 2.51069,8.09046 4.56018,16.89046 2.04949,8.8 4.45997,19.15 5.35662,23 l 1.63028,7 8.87592,0.675922 c 4.88176,0.371757 9.25977,1.059765 9.72891,1.528907 0.46914,0.469142 2.20598,11.35226 3.85964,24.184708 l 3.00665,23.331723 -2.008,2.55275 c -1.10439,1.40401 -9.91241,11.25423 -19.57337,21.88937 L 652.82438,159 l -6.66219,0.20081 c -3.66421,0.11045 -8.23719,0.26495 -10.16219,0.34335 -1.925,0.0784 -9.24886,0.21302 -16.27525,0.29918 L 606.94951,160 l -3.47476,7.62484 C 601.56364,171.81851 600,175.53745 600,175.88917 600,176.49343 632.25828,194 633.37172,194 c 0.28807,0 0.65978,-2.3625 0.82602,-5.25 l 0.30226,-5.25 7.5,-0.68965 7.5,-0.68965 14.27492,6.61721 c 7.8512,3.63947 14.67838,7.10336 15.1715,7.69754 0.49313,0.59417 1.54563,2.87677 2.33889,5.07243 0.79326,2.19567 4.00905,10.64273 7.1462,18.77126 3.13715,8.12853 5.56094,15.50044 5.3862,16.38204 -0.19079,0.96256 -5.71077,4.07984 -13.81771,7.80322 -7.425,3.41018 -16.53421,7.633 -20.2427,9.38404 -5.20038,2.45549 -10.347,3.75216 -22.5,5.66881 l -15.7573,2.48509 -6.74463,-7.24945 c -5.18017,-5.56789 -7.073,-7.01788 -8.16032,-6.25116 -0.77864,0.54905 -4.14294,3.02327 -7.47623,5.49827 l -6.06052,4.5 -0.10219,7.5 c -0.0562,4.125 -0.30555,14.70174 -0.5541,23.50387 l -0.4519,16.00387 24.53334,24.49613 c 13.49334,13.47287 24.68759,24.49613 24.87611,24.49613 0.18852,0 4.90519,-3.19379 10.4815,-7.09731 l 10.13874,-7.09731 18.05666,-0.69746 18.05667,-0.69746 6.30057,4.79477 c 3.46532,2.63712 13.39197,10.36926 22.05922,17.18252 l 15.75864,12.38774 -0.54993,3.61226 c -0.30247,1.98674 -1.08318,10.13725 -1.73493,18.11225 -0.65175,7.975 -1.54649,15.20115 -1.98833,16.0581 -0.44183,0.85696 -7.76576,6.48196 -16.27538,12.5 l -15.47205,10.9419 15.11177,0.5 15.11176,0.5 1.83147,7 C 743.81048,463.76808 749,489.67145 749,496.1786 l 0,7.02697 -20.14033,33.47839 c -18.78927,31.23258 -20.41601,33.60597 -24.25,35.38027 -4.71633,2.18264 -27.79516,11.30067 -51.10967,20.19251 l -16,6.10219 -26.98862,-3.80722 c -26.05622,-3.67569 -27.38631,-3.97257 -38.5,-8.59323 -6.33126,-2.6323 -26.36138,-10.66614 -44.51138,-17.85296 -58.04831,-22.9853 -68.97576,-27.62188 -69.32073,-29.41317 -0.17646,-0.91629 2.41101,-10.01502 5.74994,-20.21939 C 467.26815,508.26859 470,499.75989 470,499.56474 c 0,-0.19515 -3.0752,-2.98955 -6.83378,-6.20978 -8.79189,-7.5326 -44.38766,-38.67445 -54.29309,-47.49966 l -7.62686,-6.79513 -28.27619,-1.0437 c -15.5519,-0.57403 -28.42357,-0.89631 -28.60371,-0.71617 -0.18014,0.18014 2.72928,5.47376 6.46537,11.76361 25.40721,42.77398 32.6366,55.66947 32.65174,58.24286 0.0147,2.49923 -1.18878,3.55144 -10.98348,9.60285 -6.05,3.73784 -21.55252,13.4047 -34.45006,21.48192 l -23.45005,14.68584 -3.2857,12.21131 c -2.94204,10.93408 -6.45134,24.10943 -15.02101,56.39497 l -2.70308,10.18365 -53.54505,0.0643 -53.54505,0.0643 -4,-2.34783 z M 292.49469,617.5 c 1.75599,-6.6 6.46876,-24.30049 10.47281,-39.33443 8.26946,-31.04921 8.35325,-27.84142 -0.99695,-38.16557 l -5.88682,-6.5 -15.48805,7.71903 -15.48805,7.71904 -20.25968,-2.45651 -20.25968,-2.4565 -5.16841,-5.10421 -5.16842,-5.10421 -6.21945,7.34168 C 197.91748,553.09789 201.8113,552 169.58035,552 c -21.0535,0 -28.59635,0.31671 -29.76992,1.25 -0.8645,0.6875 -4.3869,6.425 -7.82754,12.75 -3.44064,6.325 -7.53267,13.83502 -9.09339,16.68893 l -2.83767,5.18893 5.22409,2.90528 c 2.87324,1.59791 18.20873,10.44825 34.07885,19.66742 l 28.85478,16.76212 34.64522,0.89548 c 19.05488,0.49251 38.92023,1.03523 44.14523,1.20605 5.225,0.17082 12.38044,0.2825 15.90099,0.24819 L 289.30197,629.5 z M 671.5,580.05623 c 17.05,-6.71924 31.79731,-12.74317 32.7718,-13.38652 2.48126,-1.63808 38.91002,-63.09112 37.65388,-63.51973 -0.5642,-0.19252 -11.28588,0.64532 -23.82594,1.86185 l -22.80013,2.21189 -41.83096,-14.59738 c -23.00702,-8.02855 -41.92795,-14.49139 -42.04649,-14.36185 -0.11855,0.12953 1.24115,7.04634 3.02155,15.3707 3.11919,14.5839 3.20862,15.6402 2.45535,29 -0.52987,8.70635 -0.81568,17.41443 -0.89906,26.13338 l -13.43715,18.86572 c -10.19904,14.31942 -13.03057,18.93853 -11.75,19.16788 14.65303,2.62441 40.84389,6.00926 44.68715,5.77527 3.53508,-0.21523 14.0825,-3.88374 36,-12.52121 z M 56.195532,591.02962 C 62.962989,590.49591 78.85,589.32195 91.5,588.42083 c 12.65,-0.90113 23.19719,-1.82415 23.43821,-2.05116 0.24101,-0.22701 5.04084,-8.84056 10.66628,-19.14121 L 135.83257,548.5 l 8.83371,-0.73184 c 4.85855,-0.40252 18.13865,-0.63014 29.51135,-0.50582 l 20.67764,0.22603 7.7026,-8.29111 7.7026,-8.2911 -2.14935,-2.28788 c -1.47977,-1.57514 -7.17556,-3.81908 -18.28354,-7.20307 L 173.69339,516.5 l -5.91906,-9.21058 -5.91906,-9.21059 -40.17763,-20.66677 C 99.579937,466.04533 79.219559,455.49506 76.432353,453.96701 l -5.067648,-2.77828 -11.820806,25.15563 C 53.042455,490.17996 40.844778,514.775 32.43795,531 24.031123,547.225 17.005927,561.00866 16.826405,561.63035 16.402696,563.09767 40.950104,592 42.62004,592 c 0.699063,0 6.808034,-0.43667 13.575492,-0.97038 z M 596.29778,567.92731 C 602.82169,558.89229 608.77572,550.6 609.52895,549.5 c 0.94081,-1.37393 1.67513,-7.95754 2.3458,-21.0316 l 0.97627,-19.0316 -3.67551,-16.88717 -3.67551,-16.88717 -8.74121,-2.91163 -8.7412,-2.91163 -4.12023,-7.9196 c -2.26613,-4.35578 -4.63258,-7.9162 -5.25879,-7.91205 -1.09002,0.007 -10.53836,1.3857 -17.38857,2.5369 -3.14294,0.52818 -3.25,0.70536 -3.25,5.37842 0,2.81999 -0.55825,5.29555 -1.34059,5.94483 -0.73732,0.61192 -9.1221,2.7458 -18.63285,4.74195 -15.22469,3.19542 -18.05654,4.10857 -23.68435,7.63719 -4.15625,2.60596 -8.74441,4.49397 -13.11715,5.39766 -5.45024,1.12637 -8.5994,2.66613 -16.61276,8.12267 l -9.8877,6.73283 -5.84741,17.96489 c -3.21608,9.88068 -5.51662,18.27439 -5.1123,18.65269 1.34171,1.25536 118.71237,47.89 119.70087,47.5605 0.53371,-0.1779 6.30811,-7.71575 12.83202,-16.75077 z M 345.7562,527.92005 c 16.90909,-10.49397 31.27829,-19.60647 31.93156,-20.25 0.91375,-0.90012 -1.12277,-5.09189 -8.8277,-18.17005 -5.5085,-9.35 -14.68677,-25.10525 -20.39616,-35.01166 l -10.3807,-18.01167 -17.77246,-10.48833 c -9.77485,-5.76859 -23.62974,-14.0129 -30.78865,-18.32069 -7.15891,-4.30779 -13.42696,-7.90779 -13.92901,-8 -0.50205,-0.0922 -1.6343,2.25674 -2.51612,5.21989 -1.43459,4.82061 -2.07199,5.60984 -6.05717,7.5 -4.02087,1.9071 -6.06112,4.47782 -20.98682,26.44342 L 229.5,463.16191 207,475.39981 c -12.375,6.73084 -26.42863,14.36314 -31.23029,16.96067 l -8.73029,4.72277 4.5587,6.85565 4.5587,6.85565 16.25245,5.65888 16.25244,5.65887 9.72577,8.8357 c 9.31506,8.46258 9.9662,8.86232 15.41915,9.46608 3.13135,0.3467 11.31837,1.33876 18.19337,2.20458 l 12.5,1.57422 14.5,-7.4965 c 7.975,-4.12308 15.48606,-7.78841 16.69124,-8.14518 1.84539,-0.54629 3.49857,0.85847 10.47397,8.90006 4.5555,5.25181 8.40973,9.54874 8.56496,9.54874 0.15523,0 14.11694,-8.58598 31.02603,-19.07995 z M 722.5,499.86281 c 12.65,-1.19399 23.10344,-2.24252 23.22987,-2.33006 0.2573,-0.17815 -6.38484,-30.24058 -10.3364,-46.78275 L 732.82554,440 721.66277,439.9796 c -19.24558,-0.0352 -24.84146,-0.6662 -35.62822,-4.01739 -9.52322,-2.95864 -11.01935,-3.15829 -18.93734,-2.52716 -4.72847,0.3769 -9.11663,1.22071 -9.75148,1.87512 -0.63484,0.65442 -2.84813,5.01485 -4.91842,9.68985 -5.17981,11.69675 -5.5517,12.01236 -12.92731,10.97094 -27.91011,-3.94084 -40.44493,-5.02319 -46.60274,-4.02405 -3.51849,0.5709 -6.74124,1.0414 -7.16166,1.04556 -1.46055,0.0144 5.26781,11.93901 7.37189,13.06507 1.8605,0.99572 28.6501,10.47509 73.39251,25.9696 7.7,2.66655 17.15,5.98448 21,7.37318 3.85,1.38871 8.125,2.54933 9.5,2.57917 1.375,0.0298 12.85,-0.92266 25.5,-2.11666 z M 483.18774,488.70777 c 7.44383,-5.02974 10.57102,-6.52326 15.58593,-7.44371 4.2762,-0.78487 8.57446,-2.56484 13.5,-5.59057 6.3421,-3.8959 9.06176,-4.82739 22.22633,-7.61259 8.25,-1.74544 15.73087,-3.38553 16.62416,-3.64466 1.2083,-0.3505 1.89271,-2.57481 2.67304,-8.68731 0.57689,-4.51889 0.93538,-8.32968 0.79665,-8.46842 -0.13874,-0.13873 -8.99161,-2.54757 -19.67305,-5.35298 L 515.5,436.8068 498,426.74476 l -17.5,-10.06204 -12,-1.36225 c -6.6,-0.74924 -12.51784,-1.54659 -13.15077,-1.7719 -0.63292,-0.2253 -2.58973,-5.0534 -4.34847,-10.72911 -1.75874,-5.6757 -3.30122,-10.42978 -3.42774,-10.56463 -0.12651,-0.13484 -7.34223,1.77766 -16.03494,4.25 C 422.84537,398.97718 415.59542,401 415.42709,401 c -0.16833,0 -1.48498,3.9375 -2.92587,8.75 -1.4409,4.8125 -3.71813,12.31007 -5.06052,16.66127 -1.34238,4.3512 -2.4407,8.27203 -2.4407,8.71296 0,0.693 41.84556,38.03974 51.91205,46.33098 1.97337,1.62536 6.2011,5.33786 9.39495,8.25 3.19385,2.91213 6.20333,5.29479 6.68774,5.29479 0.48441,0 5.07126,-2.8315 10.193,-6.29223 z m -294.43568,-9.08595 c 13.61137,-7.358 27.59008,-14.8955 31.06381,-16.75 6.10091,-3.25706 6.71743,-3.96745 18.1138,-20.87182 6.48886,-9.625 13.98207,-20.72037 16.65157,-24.65638 3.4884,-5.14342 6.00354,-7.71504 8.94172,-9.14251 3.62917,-1.76319 4.26307,-2.61484 5.64691,-7.58668 1.50969,-5.424 1.48176,-5.81676 -0.88628,-12.46046 l -2.4451,-6.85992 -10.57481,-0.64702 c -16.10647,-0.98549 -24.03078,-0.78693 -32.38361,0.81142 -6.29809,1.20517 -11.15529,1.28273 -28,0.44711 -17.84805,-0.8854 -24.29363,-0.7335 -51.88007,1.22265 l -31.5,2.23365 -15.388366,12.56907 c -8.463602,6.91299 -16.513141,13.4992 -17.887865,14.63603 -2.182907,1.80516 -2.599042,3.19844 -3.285399,11 C 74.506125,428.48013 73.841137,435.65 73.46062,439.5 l -0.69185,7 18.865615,9.70442 C 102.01047,461.54185 122.2,471.98634 136.5,479.4144 c 14.3,7.42806 26.33843,13.52357 26.75206,13.54558 0.41363,0.022 11.88863,-5.98016 25.5,-13.33816 z m 390.9364,-30.53748 20.18845,-2.88477 18.81155,2.35012 c 10.34634,1.29257 20.22507,2.56142 21.95272,2.81969 3.11919,0.46627 3.17673,0.3938 8.21509,-10.34767 l 5.07389,-10.81723 6.28492,-0.65485 c 3.45671,-0.36016 7.51031,-0.88927 9.00802,-1.17578 l 2.7231,-0.52094 -4.59838,-9.17646 c -2.52911,-5.04705 -5.02469,-9.44821 -5.54573,-9.78035 -0.52103,-0.33215 -6.34949,-1.1006 -12.95211,-1.70768 -10.41304,-0.95743 -14.37587,-0.83485 -29.88748,0.92446 l -17.88271,2.02824 -11.2899,-9.45664 -11.28989,-9.45664 -8.25,-0.37133 -8.25,-0.37134 0,5.63529 c 0,3.09941 -0.70795,7.32966 -1.57323,9.40056 -1.49542,3.57905 -1.44597,4.17343 1,12.0185 3.07691,9.86873 3.16181,12.65033 0.66832,21.89669 -2.30782,8.55787 -3.22335,12.56897 -2.86414,12.54834 0.14798,-0.009 9.35385,-1.31359 20.45751,-2.90021 z m -22.25942,-12.48825 c 2.0001,-6.88011 2.04057,-6.19 -1.07967,-18.41296 l -2.65062,-10.38335 1.91657,-4.14989 c 1.39968,-3.03068 1.77743,-5.47838 1.40063,-9.07576 L 556.5,389.64826 549,387.36362 c -4.125,-1.25656 -13.575,-3.01563 -21,-3.90905 -11.48821,-1.38233 -14.91554,-2.23267 -22.99892,-5.70615 -5.2244,-2.24497 -9.96673,-4.08175 -10.5385,-4.08175 -0.57176,0 -8.85695,3.45 -18.41152,7.66666 C 466.49649,385.55 458.33061,389 457.90466,389 c -0.42595,0 -1.90377,0.42936 -3.28404,0.95414 l -2.50958,0.95414 3.00794,8.96868 c 3.42088,10.19994 1.98135,9.35326 18.2206,10.71663 7.68658,0.64533 8.17448,0.85422 25,10.70365 16.80322,9.83638 17.5455,10.15457 35.66042,15.28641 10.175,2.88251 19.25557,5.2804 20.17904,5.32864 1.19774,0.0626 2.12936,-1.46133 3.25,-5.3162 z M 403.01835,423.75 c 1.70733,-5.6375 4.0098,-13.05184 5.11659,-16.47632 1.1068,-3.42448 1.7449,-6.65909 1.41799,-7.18803 -0.66493,-1.07589 -41.96736,-35.18749 -43.85189,-36.21719 -0.66057,-0.36094 -6.4345,1.41993 -12.83096,3.95749 l -11.62992,4.61375 -2.16738,13.02745 c -1.19206,7.1651 -2.52401,13.38408 -2.95989,13.81996 -0.80424,0.80424 -33.08167,5.64703 -38.60284,5.79184 -1.65553,0.0434 -2.37588,0.32981 -1.60079,0.63642 0.77509,0.30661 11.1077,6.40587 22.96135,13.55392 l 21.55209,12.99644 19.03865,0.70703 c 10.47126,0.38887 23.85683,0.77908 29.74571,0.86713 L 399.91411,434 z M 715.5,421.93203 c 9.35,-6.62727 17.31396,-12.36063 17.69769,-12.7408 1.09457,-1.08444 4.04388,-33.35922 3.12422,-34.18898 -0.45205,-0.40786 -9.52831,-7.61899 -20.16946,-16.02473 l -19.34755,-15.28316 -16.44806,0.61833 -16.44807,0.61832 -10.28928,7.2845 c -6.91194,4.89343 -13.17048,10.48483 -19.067,17.03449 l -8.7777,9.75 -17.23086,0 -17.23086,0 -4.09535,4.85685 -4.09535,4.85684 9.45723,7.89316 c 5.20147,4.34123 10.01144,8.01137 10.68881,8.15585 0.67738,0.14449 8.65659,-0.56635 17.73159,-1.57964 14.80883,-1.65351 17.83244,-1.70595 29.5,-0.51162 7.15,0.73189 13.54944,1.5361 14.22098,1.78712 0.67153,0.25102 3.88944,5.77965 7.15089,12.28584 l 5.92992,11.82945 8.84911,2.63459 c 4.867,1.44902 9.5241,2.66577 10.3491,2.70388 0.825,0.0381 9.15,-5.35302 18.5,-11.98029 z m -617.144887,-32.30087 10.855117,-8.97517 18.14488,-1.30245 c 9.97969,-0.71635 24.0845,-1.72722 31.34403,-2.24638 8.39777,-0.60056 20.76572,-0.58801 34,0.0345 15.51468,0.72977 22.64332,0.67308 28.05086,-0.22308 3.9875,-0.66082 7.25,-1.48741 7.25,-1.83686 0,-0.34945 -3.11331,-3.72482 -6.91847,-7.50082 l -6.91848,-6.86546 -12.36192,-1.20501 c -6.79906,-0.66275 -13.47325,-1.79528 -14.83153,-2.51671 -1.35828,-0.72144 -7.64589,-4.77454 -13.97246,-9.00689 -6.32658,-4.23235 -12.62658,-8.02602 -14,-8.43038 C 152.62439,337.6802 90.098745,317.75727 87,316.61555 85.075,315.9063 73.95436,308.53045 62.287467,300.22478 l -21.212533,-15.10122 -12.287467,7.75701 c -6.758107,4.26636 -15.374948,9.72016 -19.1485359,12.11956 l -6.8610689,4.36254 0.6110689,4.45824 C 3.725019,316.27294 4,335.26116 4,356.01695 l 0,37.73782 34.25,8.45045 34.25,8.45045 7.5,-6.02467 c 4.125,-3.31357 12.384801,-10.0635 18.355113,-14.99984 z m 233.239597,5.97087 c 0.60885,-0.23364 1.91615,-5.52717 2.90511,-11.76341 0.98896,-6.23624 2.13061,-12.24767 2.53699,-13.35873 0.51769,-1.41538 4.3788,-3.49694 12.89823,-6.95354 l 12.15936,-4.93343 6.4528,-10.27924 C 372.09624,342.6601 375,337.62611 375,337.12705 c 0,-0.49906 -6.42328,-5.25093 -14.27395,-10.55971 l -14.27396,-9.65233 -13.46698,-1.41658 c -7.40683,-0.77911 -13.81236,-1.07118 -14.23449,-0.64905 -0.42213,0.42213 -2.48332,5.91621 -4.58042,12.20907 l -3.81291,11.44155 -9.92864,3.40497 c -5.46076,1.87274 -10.02696,3.47104 -10.14711,3.5518 -0.12016,0.0807 -0.75722,4.53078 -1.4157,9.88894 l -1.19724,9.74213 -7.0843,6.14441 c -3.89636,3.37943 -7.69841,6.68985 -8.44898,7.35648 -1.1457,1.01757 -1.01386,2.26626 0.82169,7.78208 2.12676,6.39093 2.38039,6.68767 9.30404,10.88589 l 7.11767,4.31586 20.55449,-2.77286 c 11.30497,-1.52508 21.05264,-2.96403 21.6615,-3.19767 z M 435.09049,390.5 c 10.66135,-3.025 19.75454,-5.5 20.20708,-5.5 0.45254,0 9.11705,-3.69475 19.25447,-8.21056 l 18.43167,-8.21055 8.54973,-12.91469 c 4.70235,-7.10308 8.41458,-13.32013 8.2494,-13.81568 -0.16518,-0.49554 -3.89639,-5.57574 -8.29158,-11.28934 -5.58123,-7.2554 -8.74522,-10.52335 -10.49126,-10.83598 -1.375,-0.2462 -12.10644,-2.60102 -23.84765,-5.23293 l -21.34766,-4.7853 -12.57626,2.93444 -12.57626,2.93443 -7.68036,9.96308 C 404.36253,336.70503 406.07805,335.88503 388,337.47319 l -7.5,0.65887 -5.75,10.36721 c -3.1625,5.70197 -5.75,10.5866 -5.75,10.85475 0,0.26814 8.4107,7.38568 18.69045,15.81676 10.27974,8.43107 20.06724,16.55353 21.75,18.04991 1.68275,1.49637 3.78095,2.73387 4.66266,2.75 0.8817,0.0161 10.32603,-2.44569 20.98738,-5.47069 z m 171.53694,-16.51753 17.12743,0.0175 6.62257,-7.39956 C 634.01984,362.53069 637,358.82163 637,358.3581 c 0,-0.46353 -10.63407,-11.48378 -23.63126,-24.48945 L 589.73748,310.222 579.0346,317.111 c -5.88658,3.78895 -11.52306,6.889 -12.52552,6.889 -1.00245,0 -6.81459,-0.92801 -12.91586,-2.06224 L 542.5,319.87551 l -9.68901,5.10709 c -9.36916,4.9385 -9.81216,5.32845 -13.41926,11.81225 -2.05163,3.68783 -7.27522,12.01095 -11.60798,18.49582 -4.33275,6.48486 -8.10153,12.37387 -8.37506,13.08668 -0.32516,0.84737 2.30254,2.55783 7.59078,4.94108 6.81741,3.0724 10.19237,3.88895 21.48206,5.19743 7.38684,0.85614 17.12196,2.72307 21.70621,4.16266 5.04033,1.58281 12.05171,2.86913 17.81226,3.26787 l 9.5,0.65758 6,-6.31951 6,-6.31952 17.12743,0.0175 z m -332.10325,-4.003 c 4.54812,-3.86129 8.50609,-8.02379 8.79549,-9.25 0.2894,-1.22621 0.8376,-5.7048 1.21821,-9.95243 0.38062,-4.24763 1.24294,-8.18018 1.91629,-8.739 0.67334,-0.55882 5.42057,-2.48349 10.5494,-4.27704 l 9.32514,-3.261 3.37311,-9.88762 c 1.8552,-5.43819 3.22172,-10.34176 3.0367,-10.89681 -0.18501,-0.55505 -6.16437,-2.98156 -13.28746,-5.39224 L 286.5,303.94028 271.77329,307.5818 c -10.90507,2.69652 -19.44428,5.68857 -32.9059,11.52985 C 228.86883,323.45024 220.06692,327 219.3076,327 c -0.75932,0 -6.14593,-2.7 -11.97024,-6 -5.82431,-3.3 -10.92717,-6 -11.33968,-6 -0.41251,0 -4.74324,3.23205 -9.62385,7.18234 -4.88061,3.95028 -11.26926,9.1185 -14.19701,11.48493 l -5.32317,4.3026 11.79595,7.69121 11.79595,7.69121 13.02722,1.42054 13.02723,1.42055 9.25919,9.15331 9.2592,9.15331 15.2408,1.10076 c 8.38245,0.60542 15.41066,1.16792 15.61825,1.25 0.20759,0.0821 4.09862,-3.01 8.64674,-6.87129 z M 515.34411,332.5 l 2.5151,-4.5 c 28.11368,-17.22889 12.99356,-8.54921 18.68587,-10.74129 l 5.32378,-2.61103 11.94509,2.27582 c 9.93281,1.89243 12.34444,2.06453 14.31558,1.02161 4.51332,-2.38798 17.37579,-11.20375 18.62047,-12.76223 0.93612,-1.17212 1.25,-8.94229 1.25,-30.94383 l 0,-29.3787 -2.98649,-4.34072 c -2.94922,-4.28654 -3.03147,-4.32692 -6.58887,-3.23512 -15.12315,5.61693 -26.55422,10.16486 -43.8609,16.65446 -14.49148,5.43142 -27.20287,10.33273 -28.24752,10.89181 -1.36138,0.72859 -2.94978,4.8013 -5.6078,14.37857 C 497.39676,291.14179 497,293.8315 497,304.34937 l 0,11.778 7.75,10.41602 c 4.2625,5.72881 7.82403,10.42515 7.91451,10.43631 0.0905,0.0112 1.29629,-2.0047 2.6796,-4.4797 z m -338.88568,-8.6829 c 7.66931,-6.15059 13.5161,-11.31809 12.99288,-11.48333 -0.52322,-0.16524 -9.42357,-2.79268 -19.77855,-5.83875 -16.42025,-4.83026 -19.77621,-6.17867 -26.25,-10.54714 C 139.34024,293.19302 136,290.33515 136,289.59704 c 0,-0.73811 1.27326,-5.62469 2.82946,-10.85907 l 2.82946,-9.51706 L 124.01178,247.36045 106.36464,225.5 71.932321,225.84366 c -18.937777,0.18902 -34.850039,0.74174 -35.360582,1.22827 -0.568019,0.5413 0.539906,11.08021 2.854867,27.15633 2.08072,14.44946 3.848438,26.32404 3.928261,26.38795 0.07982,0.0639 9.820133,7.00541 21.645133,15.42553 l 21.5,15.30931 36.5,11.74331 c 20.075,6.45883 37.1782,11.77984 38.00711,11.82448 0.82892,0.0446 7.78201,-4.95114 15.45132,-11.10174 z m 219.3485,8.31602 6.30693,-0.63312 7.69892,-9.93927 7.69892,-9.93926 11.47765,-2.87757 c 6.3127,-1.58266 11.62509,-3.02501 11.80531,-3.20522 0.18021,-0.18022 -5.18253,-7.77619 -11.9172,-16.87995 -12.08426,-16.33518 -12.32277,-16.58141 -18.18476,-18.77365 l -5.93991,-2.22138 0.46345,-10.42041 0.46344,-10.42041 -3.76707,-2.37805 -3.76707,-2.37804 -10.32079,1.9666 c -13.27485,2.5295 -13.15504,2.53369 -34.08282,-1.19048 -9.76694,-1.73806 -17.97488,-2.94329 -18.23987,-2.6783 -0.26499,0.26499 -0.92326,4.72386 -1.46282,9.90859 l -0.98101,9.4268 9.52857,9.5758 9.52858,9.57579 -1.19909,17.30532 c -1.01462,14.64306 -0.98504,17.42728 0.19231,18.09807 0.76527,0.43601 7.2414,4.84615 14.3914,9.80031 14.40176,9.97883 14.12232,9.9025 30.30693,8.27783 z M 234.61391,315.41638 c 8.18735,-3.62099 15.71092,-6.83324 16.71904,-7.13833 1.67734,-0.50761 1.77332,-1.37071 1.13052,-10.16637 -0.38634,-5.28643 -0.89293,-9.83668 -1.12575,-10.11168 -0.23283,-0.275 -4.56656,-2.30332 -9.63052,-4.50737 l -9.2072,-4.00738 -3.67951,-10.49262 c -2.02373,-5.77095 -3.84958,-10.90767 -4.05744,-11.41494 -0.61666,-1.50495 -6.42811,3.38506 -8.41968,7.0847 -1.01385,1.88338 -2.74337,3.60037 -3.84337,3.81554 -1.1,0.21516 -16.37137,1.08952 -33.93638,1.94302 -17.56501,0.8535 -32.27334,1.89544 -32.68519,2.31543 -0.75442,0.76934 -5.0546,15.48238 -4.61471,15.7892 10.74755,7.49622 12.90089,8.42348 33.76124,14.53812 18.28041,5.35839 23.18578,7.23284 32.97504,12.6005 6.325,3.46812 11.55126,6.31246 11.61391,6.32074 0.0626,0.008 6.81265,-2.94757 15,-6.56856 z m 294.57359,4.90051 c -1.78007,-0.57917 -2.45317,0.66298 -0.60417,0.60412 1.16495,-0.048 1.4019,-0.28494 0.60417,-0.60416 z M 493,301.75214 c 0,-12.21542 0.27978,-14.22219 3.59005,-25.75 L 500.18011,263.5 490.4425,243 c -5.35568,-11.275 -9.87239,-20.66368 -10.03712,-20.86373 -0.24489,-0.2974 -32.69623,-9.04475 -42.6112,-11.48598 l -2.70582,-0.66622 0.20582,8.68395 0.20582,8.68395 -12.75,9.88974 -12.75,9.88975 0,8.69955 0,8.69955 4.83331,1.71664 c 4.54463,1.61411 5.63177,2.79673 18.20198,19.80053 7.35276,9.94614 13.76721,18.33021 14.25431,18.63125 1.0793,0.66705 41.5031,10.05661 43.9604,10.21104 1.58414,0.0996 1.75,-1.14564 1.75,-13.13788 z M 345.38126,305.25 c 0.32133,-3.7125 0.87265,-10.71659 1.22515,-15.56465 l 0.64092,-8.81466 -9.76172,-9.93578 -9.76171,-9.93578 0.69148,-6.74957 c 0.38031,-3.71226 0.95374,-8.66307 1.27428,-11.00181 0.58035,-4.23435 0.57066,-4.2502 -2.30343,-3.76749 -1.58743,0.26662 -12.11123,1.17591 -23.38623,2.02067 -19.44208,1.45665 -26.44984,2.03797 -54.38115,4.51115 -10.91105,0.96612 -12.24054,1.31011 -16.28287,4.2131 -2.59281,1.86201 -4.19073,3.71095 -3.88829,4.4991 0.2824,0.73591 1.89034,5.76994 3.57321,11.18674 l 3.05976,9.84873 9.20967,3.79096 c 5.06532,2.08503 9.54204,4.06895 9.94828,4.40873 0.40623,0.33978 1.12793,5.2221 1.60378,10.84962 0.47585,5.62751 1.06476,10.43143 1.3087,10.67536 0.24394,0.24394 6.69285,-1.16975 14.33092,-3.14154 l 13.88739,-3.58506 15.34002,5.24994 c 13.02243,4.45677 17.26259,5.43935 28.06531,6.50366 6.9989,0.68954 13.2421,1.30656 13.87378,1.37115 0.71239,0.0728 1.37036,-2.44573 1.73275,-6.63257 z M 180.5,265.50479 c 14.3,-0.80956 27.02768,-1.47932 28.28373,-1.48836 1.54311,-0.0111 2.9575,-1.1584 4.36137,-3.53778 1.2422,-2.10537 5.65186,-5.96937 10.96627,-9.60928 C 229.00012,247.521 233,244.49184 233,244.13791 c 0,-0.35394 -3.84753,-6.03304 -8.55008,-12.62022 -8.46789,-11.86157 -8.62872,-12.01534 -16.73268,-15.99719 l -8.18261,-4.0205 -7.71718,-12 c -4.24445,-6.6 -7.73975,-13.13856 -7.76732,-14.53013 -0.0276,-1.39158 2.89737,-9.88158 6.49986,-18.86668 3.6025,-8.9851 6.415,-16.42377 6.25,-16.53039 -0.16499,-0.10661 -5.20009,-3.49435 -11.18909,-7.52829 l -10.88911,-7.33444 -12.33367,0.65935 -12.33366,0.65935 -9.27723,6.53315 C 135.67475,146.15514 124.975,153.59988 117,159.10578 83.050098,182.54462 74.52277,188.71915 74.908088,189.58402 75.132536,190.08781 83.062596,197.475 92.530443,206 c 13.783937,12.41128 19.765317,18.68836 30.016087,31.5 24.32145,30.3975 23.42291,29.45039 27.95347,29.46438 2.2,0.007 15.7,-0.65003 30,-1.45959 z m 336,-10.005 C 521.45,253.67 538.06447,247.409 553.42105,241.58645 568.77763,235.7639 581.91383,231 582.6126,231 c 0.69878,0 3.32181,2.66582 5.82895,5.92404 3.88408,5.04766 4.55845,6.60101 4.55845,10.5 0,2.51678 0.23466,4.57596 0.52147,4.57596 0.2868,0 3.37158,-2.23982 6.85506,-4.97738 6.00307,-4.71763 6.49917,-5.44024 9.50627,-13.8468 1.74497,-4.87819 3.72269,-9.57625 4.39494,-10.44015 0.83704,-1.07568 5.60751,-2.22621 15.13625,-3.65052 7.6527,-1.14389 14.03287,-2.19867 14.17816,-2.34396 0.14529,-0.14529 -1.83086,-3.88659 -4.39144,-8.314 l -4.65559,-8.04983 -19.17393,-10.16512 -19.17394,-10.16513 -28.84862,9.8635 c -23.25195,7.94997 -31.37065,11.2251 -41.84863,16.88199 -9.97797,5.38695 -16.02203,7.87658 -26,10.70974 -7.15,2.03018 -13.14021,3.82539 -13.31158,3.98936 -0.27357,0.26176 12.62354,28.28201 16.49608,35.83935 1.04055,2.03067 1.92633,2.64228 3.13309,2.16334 0.92533,-0.36724 5.73241,-2.16481 10.68241,-3.9946 z m 122,-1.08225 c 11.27534,-1.58206 12.96621,-2.13607 28,-9.17413 8.8,-4.11971 17.42448,-8.09997 19.16552,-8.84502 l 3.16552,-1.35463 -6.74369,-17.74969 -6.74369,-17.74969 -13.42183,-6.23505 c -10.38421,-4.82395 -14.49685,-6.24346 -18.17183,-6.2722 L 639,187 l 0,5.09988 c 0,4.33758 0.82211,6.55185 5.5,14.81368 5.54139,9.7869 6.39512,12.41519 4.42768,13.63114 -0.58978,0.3645 -7.67728,1.64745 -15.75,2.85099 l -14.67768,2.18826 -1.77822,3.75124 c -2.47922,6.44167 -1.0286,2.5968 -3.99414,10.16481 l -0.4402,2.3021 c -0.57443,3.00409 10.07061,15.51595 12.57496,14.78025 0.90068,-0.26459 7.0376,-1.23876 13.6376,-2.16481 z m -349,-16.55106 c 22.55,-1.75518 41.10674,-3.2624 41.2372,-3.34939 0.13046,-0.087 2.29695,-8.90142 4.81441,-19.58762 4.47117,-18.97932 4.54954,-19.59591 3.38262,-26.61357 l -1.1946,-7.18409 -3.61982,-0.51749 C 332.12892,180.32971 323.525,179.81592 315,179.47257 l -15.5,-0.62426 -16,-7.07317 c -8.8,-3.89024 -16.55895,-7.58113 -17.24211,-8.20198 -0.68316,-0.62085 -1.53167,-3.89912 -1.88557,-7.28505 l -0.64345,-6.15624 8.41865,-5.48755 8.41866,-5.48756 -0.71194,-7.82838 c -0.39157,-4.30561 -0.74396,-8.7903 -0.78309,-9.96598 -0.0571,-1.7164 -1.65561,-2.77629 -8.11235,-5.37901 l -8.04119,-3.24141 -7.20881,4.43902 c -3.96484,2.44146 -17.64856,10.88881 -30.40827,18.77188 l -23.19947,14.33286 -6.55434,16.60713 c -3.60489,9.13392 -6.55263,17.15455 -6.55053,17.82362 0.002,0.66907 3.38413,6.35703 7.51564,12.63991 l 7.51182,11.42342 7.54817,3.31717 c 6.81882,2.99665 7.99272,3.9494 12.14889,9.86009 2.53039,3.59861 6.83935,9.60518 9.57546,13.34795 l 4.97474,6.80503 5.11454,-0.52617 c 2.813,-0.28939 23.56455,-1.96223 46.11455,-3.71741 z m 113.90031,1.6943 4.90032,2.49943 11.34968,-8.65332 11.34969,-8.65332 0,-7.99955 0,-7.99954 -6.70168,-9.90684 c -4.20548,-6.21679 -7.19285,-9.71835 -8.02035,-9.40081 -0.72527,0.27831 -4.83394,3.23084 -9.13037,6.56118 l -7.8117,6.05517 -22.91795,-1.51219 c -12.60487,-0.83171 -24.97373,-1.71504 -27.48634,-1.96297 l -4.56839,-0.45077 -4.17328,18.10638 c -2.2953,9.9585 -4.06452,18.21238 -3.9316,18.34195 0.13291,0.12957 8.75727,1.75087 19.16525,3.60288 l 18.92358,3.36729 12.07642,-2.2472 12.07641,-2.2472 z m 93.69875,-26.5009 c 9.94301,-2.92343 16.79794,-5.75365 26.56572,-10.96829 10.58813,-5.65258 18.71029,-8.90038 41.49824,-16.59383 15.5834,-5.26111 28.82728,-10.11289 29.43085,-10.78171 0.60356,-0.66883 2.59826,-4.70374 4.43267,-8.96648 l 3.33527,-7.75042 -5.83303,-8.49958 C 593.32062,144.82481 590.60549,141 590.49516,141 c -0.11033,0 -7.57937,2.74063 -16.59788,6.09028 -9.0185,3.34966 -24.72228,8.93345 -34.89728,12.40843 -54.26251,18.53182 -51.09337,17.01782 -62.12566,29.67923 -4.65762,5.34539 -5.03089,6.19389 -6.37344,14.48741 -0.78434,4.84521 -1.10541,9.11463 -0.71349,9.4876 0.88594,0.84309 10.14164,3.68288 12.31165,3.7774 0.87949,0.0383 7.62949,-1.70341 15,-3.87047 z M 465.93557,201.9179 c 1.51852,-9.23477 1.76263,-9.79661 6.73439,-15.5 11.24358,-12.89812 11.02674,-12.7657 34.38268,-20.99727 C 518.84869,161.26322 535.475,155.3709 544,152.32658 c 8.525,-3.04432 18.65,-6.56561 22.5,-7.82509 3.85,-1.25949 8.575,-2.93964 10.5,-3.73368 1.925,-0.79404 5.60168,-2.21517 8.17041,-3.15807 3.6201,-1.32883 4.9132,-2.41082 5.75,-4.81128 1.50297,-4.31142 1.53559,-4.23092 -2.90555,-7.16993 l -3.98513,-2.63724 -40.26487,2.48524 c -22.14567,1.36688 -42.30017,2.72078 -44.78778,3.00867 -3.71668,0.43013 -6.92532,-0.34685 -18,-4.35876 -8.41561,-3.04863 -18.1716,-5.71594 -25.97708,-7.10218 -6.875,-1.22098 -16.8875,-3.00697 -22.25,-3.96887 l -9.75,-1.7489 0,2.33008 c 0,1.28154 -0.68529,17.58337 -1.52286,36.22627 l -1.52287,33.8962 7.23396,10.53746 7.23395,10.53746 13.03891,3.46529 c 7.1714,1.90592 13.9074,3.40578 14.96888,3.33303 1.64304,-0.11261 2.16422,-1.55685 3.5056,-9.71438 z M 406.2571,190.37246 c 7.02223,-5.34935 8.79272,-7.22973 9.18023,-9.75 0.26406,-1.71735 0.96883,-17.07246 1.56616,-34.12246 0.59734,-17.05 1.31371,-32.1785 1.59195,-33.61889 0.42664,-2.20867 -1.34258,-4.81318 -11.29478,-16.627322 C 400.8103,88.549154 388.975,74.846293 381,65.802985 L 366.5,49.360606 327.92203,29.70073 289.34407,10.040854 285.53537,26.270427 281.72668,42.5 266.61334,65.887965 C 258.301,78.751345 251.5,89.52541 251.5,89.830332 c 0,0.304921 3.6,2.002829 8,3.773127 8.72215,3.509274 8.96629,3.925123 7.04615,12.001751 -0.72981,3.06977 -0.66282,3.1354 5.86833,5.75 3.63361,1.45464 6.7556,2.64479 6.93775,2.64479 0.18216,0 0.85209,-1.7386 1.48875,-3.86356 1.146,-3.82501 1.27479,-3.90487 12.90828,-8.00331 6.46291,-2.276867 12.95327,-4.138264 14.42302,-4.136443 3.3587,0.0042 46.81633,11.591923 48.03187,12.807463 0.704,0.704 3.68437,23.48538 3.77597,28.86285 0.0109,0.64185 6.99488,3.4917 15.51988,6.333 11.30662,3.76839 15.5,5.59475 15.5,6.7508 0,1.42466 -8.27576,17.74947 -9.85486,19.43977 -0.35483,0.37981 -9.11896,2.36011 -19.47584,4.40066 l -18.8307,3.7101 0.68194,6.09933 c 0.37506,3.35464 0.97388,6.38908 1.3307,6.7432 0.35682,0.35413 10.32376,1.30339 22.14876,2.10948 33.28867,2.26922 29.20438,2.77703 39.2571,-4.88088 z M 110.34779,157.50395 149.5,130.00791 l 14.06987,-0.004 14.06987,-0.004 10.8934,7.5 c 5.99137,4.125 11.37676,7.5 11.96754,7.5 0.59077,0 7.3573,-3.94655 15.03673,-8.77012 7.67942,-4.82356 20.85861,-12.98242 29.28707,-18.1308 9.18325,-5.60942 15.64187,-10.20994 16.11647,-11.47988 2.4638,-6.59261 2.78122,-6.121 -6.66065,-9.896067 -4.87822,-1.950421 -8.91457,-4.175519 -9.08244,-5.006825 -0.16617,-0.822946 6.95363,-12.647789 15.82178,-26.27743 L 277.14355,40.657714 280.92509,25.078857 284.70662,9.5 281.10331,8.8409491 C 279.12149,8.4784711 260.85,7.6453329 240.5,6.9895309 220.15,6.3337288 190,5.2491373 173.5,4.5793274 L 143.5,3.3614912 107,18.225671 C 86.925,26.400969 69.994183,33.632134 69.375961,34.294925 68.75774,34.957716 67.335435,38.2 66.215283,41.5 65.095132,44.8 60.758497,57.332751 56.578317,69.350559 L 48.97799,91.201117 46.496657,123.35056 c -1.364733,17.68219 -2.718307,33.5487 -3.007942,35.2589 -0.488058,2.88182 0.151963,3.72673 8.742337,11.54104 C 63.228063,180.15403 69.133034,185 70.325632,185 c 0.478469,0 18.48844,-12.37322 40.022158,-27.49605 z m 247.83604,14.95604 c 9.52389,-1.94701 18.00689,-3.74662 18.85111,-3.99913 C 378.26077,168.0942 385,156.2905 385,154.51013 c 0,-0.24861 -6.525,-2.52597 -14.5,-5.06082 -7.975,-2.53484 -14.53526,-4.91042 -14.57836,-5.27906 -0.0431,-0.36864 -0.8306,-7.19525 -1.75,-15.17025 L 352.5,114.5 l -4,-1.29037 c -2.2,-0.7097 -12.1872,-3.47018 -22.19378,-6.13439 l -18.19379,-4.84403 -10.65613,3.78431 c -5.86087,2.08137 -11.17367,4.30644 -11.80622,4.94459 -0.76816,0.77496 -1.15008,6.3468 -1.15008,16.77843 l 0,15.61816 -7.83502,4.57165 -7.83502,4.57165 0.63081,3.96246 c 0.34695,2.17935 0.72271,4.00365 0.83502,4.054 0.11232,0.0503 6.99361,3.12486 15.29178,6.83225 l 15.08756,6.7407 13.41244,0.80864 c 23.55101,1.41989 25.8454,1.29303 44.09626,-2.43806 z m 309.45292,-37.09224 c 9.82479,-10.79774 18.18291,-20.1759 18.5736,-20.84036 0.7685,-1.30701 -4.02021,-41.602493 -5.07233,-42.682056 -0.35091,-0.360067 -9.51092,-1.215339 -20.35558,-1.900604 l -19.71755,-1.245938 -6.61573,5.900604 c -3.63866,3.245332 -7.36576,6.435726 -8.28245,7.089765 -0.91669,0.654038 -9.01146,1.848788 -17.98838,2.654999 -8.97691,0.806211 -16.54063,1.684807 -16.80826,1.952434 -0.26763,0.267628 -1.13342,6.272878 -1.92399,13.345001 -0.79057,7.072125 -1.67595,14.274065 -1.96752,16.004305 -0.48144,2.85697 -0.0685,3.48475 4.49566,6.83517 5.4833,4.02512 6.0516,5.84959 3.62198,11.62797 -1.38982,3.30539 -1.34331,3.42611 4.66782,12.11481 l 6.07162,8.77615 21.71892,0 21.71893,0 z m -155.11968,-12.3581 c 8.79061,-0.5447 18.3014,-1.24658 21.1351,-1.55974 l 5.15216,-0.56938 -4.90216,-12.12246 C 529.20058,97.13162 529,96.237986 529,86.918113 l 0,-9.717487 -12.25,-9.171471 C 510.0125,62.984847 501.125,56.212623 497,52.979769 L 489.5,47.101854 461,40.129273 432.5,33.156692 402.01463,31.14705 c -16.76695,-1.105303 -30.57033,-1.924682 -30.67417,-1.820842 -0.10384,0.103841 -0.31032,4.070085 -0.45884,8.813877 l -0.27004,8.625076 17.44421,19.750972 c 9.59432,10.863034 20.85411,23.853373 25.02176,28.867419 4.16766,5.014048 8.21766,9.599398 9,10.189668 1.1795,0.88991 24.92465,5.46584 41.6954,8.03512 2.35012,0.36004 10.00012,2.79875 17,5.41935 6.99988,2.6206 13.40973,4.81144 14.24412,4.86852 0.83438,0.0571 8.70938,-0.34187 17.5,-0.88656 z m 56.13419,-3.93301 c 6.68319,-0.46011 12.57513,-1.09853 13.09321,-1.41871 0.51808,-0.32019 1.75648,-8.25135 2.75201,-17.6248 0.99553,-9.373454 2.30358,-17.44193 2.90679,-17.929949 0.6032,-0.488019 7.62173,-1.408369 15.59673,-2.045223 7.975,-0.636853 15.77092,-1.40352 17.32426,-1.703702 1.55334,-0.300183 6.41904,-3.718635 10.81265,-7.596559 l 7.98839,-7.050771 10.93735,0.664287 C 656.22611,64.745555 661,64.649935 661,64.15214 661,63.135282 656.91188,44.612371 653.84514,31.734142 652.69705,26.91292 651.4123,22.754817 650.99015,22.493914 650.568,22.233011 634.08502,20.431642 614.3613,18.490872 L 578.5,14.9622 556.67802,22.484437 c -12.00209,4.137231 -22.80209,8.046608 -24,8.687505 -1.19791,0.640897 -7.67388,6.013029 -14.39105,11.938071 l -12.21303,10.772804 13.21303,9.726495 c 7.26717,5.349572 13.29466,9.770065 13.39442,9.823317 0.0998,0.05325 0.49788,5.265196 0.88469,11.582097 0.61977,10.121369 1.17487,12.672799 4.67439,21.485274 2.1841,5.5 4.36736,11.02566 4.85168,12.27925 0.82258,2.1291 1.2932,2.24152 7.14422,1.70659 3.445,-0.31496 11.7317,-0.9491 18.41489,-1.4092 z"
       id="path2987"
       inkscape:connector-curvature="0"
       sodipodi:nodetypes="cscsscsssscsssscccsscsscssscsssscssscsscsssssscsssscccsssscssscsscssscsssscccscsssssscssscsscssscccsscsscscccsscssscsssssssscsssssscsscccccssscccccccssssscsscssscssscscscsccsssssscscsscccsscccsscsssssssscccccscssssssscsssssssscsscssscsscccccssscssssscsscssscssscssscccsssssscscccsssssssssssssssssssscsssscsssscsscsscssscsscscsscccccsssscssscsscssssssscsssscssscsscsscsscsscssssscccsscccccscsssscscsscsssssscsssssscsscsscccsssssscssscssscscscsssscssssscssssscccsscsssscsccssscssscsssssssscccccssssscscscssssssscccccccscsscccsssscsccssscscssssssscccssscscscsscccscsscccccsssscccssssssscscssssssssscsccccsscssscccccccssscssscccsssssssscssscscsscsssssssscscscscccssssscssssssssssssscccsssssssssscccsscsssscccsssscsscsscssscccscscsscscscssscssccccccssscsscscsccccssscscsssssssssssssssssscssssscsscccssssssssscccccsssssssscscsssscscssscccsssssscscccssscsssscssssssssssscsscssscccscscsssssscssssssssscccssscsscsscccssscssssscsscssssscssssscssscscsssss" />
  </g>
  <g
     inkscape:groupmode="layer"
     id="layer1"
     inkscape:label="Actual Working Layer"
     style="display:inline">
    <path
       style="fill:none;stroke:#000000;stroke-width:1px;stroke-linecap:butt;stroke-linejoin:miter;stroke-opacity:1"
       d="M 143,3.4999997 69.5,34 l -21,58 -5,69.5 26.5,24.5 80.75,-56.5 27.25,0.75 22.5,15.25 59.5,-37 2.5,-8.25 -18,-8.75 32.5,-50 7.5,-32.5000003 z"
       id="Semersuac"
       inkscape:connector-curvature="0"
       inkscape:label="Semersuac"
       sodipodi:nodetypes="cccccccccccccc" />
    <path
       style="fill:none;stroke:#000000;stroke-width:1px;stroke-linecap:butt;stroke-linejoin:miter;stroke-opacity:1"
       d="m 308.12178,102.31636 -22.80419,8.66206 -1.23744,32.88046 -15.37957,8.83884 1.41421,7.77817 30.40559,13.78859 40.48187,1.23743 36.06244,-6.71751 8.13173,-13.96536 -29.52171,-10.6066 -2.82843,-29.52171 z"
       id="Hercynia"
       inkscape:connector-curvature="0"
       inkscape:label="#path3921" />
    <path
       style="fill:none;stroke:#000000;stroke-width:1px;stroke-linecap:butt;stroke-linejoin:miter;stroke-opacity:1"
       d="m 289.20667,10.038925 78.1353,39.59798 50.91169,60.104075 -2.47487,74.24621 -17.67767,13.08148 -53.38656,-3.88909 -2.47488,-12.72792 38.89088,-8.13173 9.89949,-19.44543 -31.46625,-13.08148 -2.82843,-27.93072 -46.66905,-14.142134 -28.28427,9.192384 -2.12132,7.07107 -14.14213,-6.01041 2.82842,-9.89949 -17.67767,-8.485282 30.75915,-47.022601 z"
       id="Skarsind"
       inkscape:connector-curvature="0"
       inkscape:label="Skarsind" />
    <path
       style="fill:none;stroke:#000000;stroke-width:1px;stroke-linecap:butt;stroke-linejoin:miter;stroke-opacity:1"
       d="m 202.23254,150.39962 -13.78859,33.4108 14.67247,24.39518 15.73313,8.30851 18.73833,25.80939 93.33809,-8.13172 10.25305,-40.65864 -3.53553,-13.08148 -38.53732,-1.41421 -32.88047,-16.26346 -3.18198,-13.43503 17.67767,-9.89949 -0.7071,-20.85965 -18.03123,-6.01041 z"
       id="Hahnmark"
       inkscape:connector-curvature="0"
       inkscape:label="Hahnmark"
       sodipodi:nodetypes="ccccccccccccccc" />
    <path
       style="fill:none;stroke:#000000;stroke-width:1px;stroke-linecap:butt;stroke-linejoin:miter;stroke-opacity:1"
       d="m 149.90664,135.90393 -76.013981,53.74012 37.123101,34.64823 36.76956,43.84062 63.28605,-3.53553 6.71752,-9.54594 15.55635,-10.96016 -17.32412,-25.45584 -16.26345,-8.48529 -15.55635,-26.16295 13.43503,-34.64823 -22.62742,-14.49569 z"
       id="Kallavesa"
       inkscape:connector-curvature="0"
       inkscape:label="Kallavesa" />
    <path
       style="fill:none;stroke:#000000;stroke-width:1px;stroke-linecap:butt;stroke-linejoin:miter;stroke-opacity:1"
       d="m 371.23106,29.130808 -0.70711,18.384777 51.26525,58.336305 45.60838,8.13173 26.51651,9.8995 45.96194,-3.18198 -11.66726,-26.870061 0.35355,-17.67767 -38.89087,-28.991378 -54.80078,-14.142135 z"
       id="Miekarova"
       inkscape:connector-curvature="0"
       inkscape:label="Mirkarova" />
    <path
       style="fill:none;stroke:#000000;stroke-width:1px;stroke-linecap:butt;stroke-linejoin:miter;stroke-opacity:1"
       d="m 651.24535,22.059741 -72.1249,-7.424622 -45.96194,15.55635 -26.87005,24.04163 26.5165,19.091883 1.41421,21.566757 9.54595,25.455841 37.47665,-2.12132 6.36397,-35.70889 34.64823,-3.889087 17.67767,-15.202796 21.2132,1.06066 z"
       id="Volodmartz"
       inkscape:connector-curvature="0"
       inkscape:label="Volodmartz" />
    <path
       style="fill:none;stroke:#000000;stroke-width:1px;stroke-linecap:butt;stroke-linejoin:miter;stroke-opacity:1"
       d="m 685.89358,115.39784 -35.35534,39.95153 -44.19417,-0.70711 -12.37437,-17.32411 2.87132,-9.04595 -9.23528,-8.98528 3.53553,-32.173356 34.64823,-5.3033 15.55635,-12.727922 39.95153,2.474873 z"
       id="Karsk"
       inkscape:connector-curvature="0"
       inkscape:label="Karsk"
       sodipodi:nodetypes="ccccccccccc" />
    <path
       style="fill:none;stroke:#000000;stroke-width:1px;stroke-linecap:butt;stroke-linejoin:miter;stroke-opacity:1"
       d="m 423.20341,111.1552 -3.53554,73.18555 15.55635,20.85965 28.63783,7.07106 5.3033,-20.50609 14.49569,-16.97056 105.71246,-38.53732 3.18198,-7.07107 -8.48528,-7.07107 -88.7419,6.36396 -30.05204,-9.19239 z"
       id="Karov"
       inkscape:connector-curvature="0"
       inkscape:label="Karov" />
    <path
       style="fill:none;stroke:#000000;stroke-width:1px;stroke-linecap:butt;stroke-linejoin:miter;stroke-opacity:1"
       d="m 344.00745,198.12933 -8.48528,36.416 39.95153,7.07107 22.62742,-4.5962 10.6066,5.65686 21.56676,-18.03123 1.06066,-16.26345 -14.84925,-19.09189 -17.67767,13.43503 z"
       id="Temeschwar"
       inkscape:connector-curvature="0"
       inkscape:label="Temeschwar" />
    <path
       style="fill:none;stroke:#000000;stroke-width:1px;stroke-linecap:butt;stroke-linejoin:miter;stroke-opacity:1"
       d="m 472.70088,195.65446 12.02082,-15.2028 105.35891,-39.24443 10.96015,15.2028 -5.65685,19.44544 -74.95332,27.57716 -36.416,14.14214 -14.14213,-4.5962 z"
       id="Wierwater"
       inkscape:connector-curvature="0"
       inkscape:label="Wierwater" />
    <path
       style="fill:none;stroke:#000000;stroke-width:1px;stroke-linecap:butt;stroke-linejoin:miter;stroke-opacity:1"
       d="m 596.44457,180.80521 -59.04342,19.79899 -20.85965,10.96016 -29.69848,9.54594 18.03122,39.24443 78.48885,-28.63783 9.19239,11.66726 0.35356,8.83884 12.37437,-8.83884 10.25304,-20.50609 27.93072,-6.36396 -9.89949,-17.32412 z"
       id="Semmerholm"
       inkscape:connector-curvature="0"
       inkscape:label="Semmerholm" />
    <path
       style="fill:none;stroke:#000000;stroke-width:1px;stroke-linecap:butt;stroke-linejoin:miter;stroke-opacity:1"
       d="m 434.87067,210.15014 0.35355,16.97057 -25.80939,19.44543 0.35355,18.03123 9.54594,4.24264 28.28427,35.70889 44.54773,10.6066 2.12132,-28.99138 6.36396,-21.92031 -20.15254,-42.77996 z"
       id="Astolat"
       inkscape:connector-curvature="0"
       inkscape:label="Astolat" />
    <path
       style="fill:none;stroke:#000000;stroke-width:1px;stroke-linecap:butt;stroke-linejoin:miter;stroke-opacity:1"
       d="m 506.64201,264.59737 74.59976,-27.93072 7.07107,7.42462 -0.7071,60.81118 -21.21321,14.14214 -25.8094,-4.94975 -20.85965,14.14214 -6.71751,8.83883 -15.9099,-20.85965 0,-24.74874 z"
       id="Bronkliande"
       inkscape:connector-curvature="0"
       inkscape:label="Bronkliande" />
    <path
       style="fill:none;stroke:#000000;stroke-width:1px;stroke-linecap:butt;stroke-linejoin:miter;stroke-opacity:1"
       d="m 639.26742,198.46512 11.25305,20.7132 -28.84493,7.07107 -8.02817,16.42767 10.25304,14.49569 31.46626,-4.5962 35.35534,-18.38477 -13.43503,-35.00179 -27.57717,-11.66726 c -4.73127,2.42921 -7.29606,6.82371 -10.44239,10.94239 z"
       id="Holberg"
       inkscape:connector-curvature="0"
       inkscape:label="Holberg"
       sodipodi:nodetypes="cccccccccc" />
    <path
       style="fill:none;stroke:#000000;stroke-width:1px;stroke-linecap:butt;stroke-linejoin:miter;stroke-opacity:1"
       d="m 589.72706,310.91286 -21.92031,13.08148 -25.45585,-4.24264 -18.73833,11.3137 -25.45584,38.18377 17.32411,7.77818 62.93251,10.25304 11.31371,-13.08147 35.35534,0.35355 13.08147,-16.26345 z"
       id="Reikos"
       inkscape:connector-curvature="0"
       inkscape:label="Reikos" />
    <path
       style="fill:none;stroke:#000000;stroke-width:1px;stroke-linecap:butt;stroke-linejoin:miter;stroke-opacity:1"
       d="m 697.91439,343.79333 -33.58757,1.06066 -21.56676,15.20279 -17.32411,19.09189 -34.64823,-0.35356 -8.13173,9.54594 20.15254,16.97057 35.00179,-3.88909 27.57716,4.24264 12.72792,23.68808 20.15255,4.94974 36.06244,-24.74873 2.12132,-33.94113 z"
       id="Therunin"
       inkscape:connector-curvature="0"
       inkscape:label="Therunin" />
    <path
       style="fill:none;stroke:#000000;stroke-width:1px;stroke-linecap:butt;stroke-linejoin:miter;stroke-opacity:1"
       d="m 745.99765,497.9426 -13.08147,-59.1292 -34.64823,0.43934 -21.56676,-6.36396 -20.15254,2.12132 -10.25305,21.2132 -46.66905,-5.65685 -14.84924,2.12132 6.36396,12.37437 103.59114,37.12311 z"
       id="Zenith"
       inkscape:connector-curvature="0"
       inkscape:label="Zenith"
       sodipodi:nodetypes="ccccccccccc" />
    <path
       style="fill:none;stroke:#000000;stroke-width:1px;stroke-linecap:butt;stroke-linejoin:miter;stroke-opacity:1"
       d="m 589.3735,586.68451 26.51651,-38.18377 1.81066,-40.92641 -7.46752,-30.84493 84.49926,30.75915 48.79037,-4.5962 -39.24443,63.63961 -67.88225,27.22361 z"
       id="Spiral"
       inkscape:connector-curvature="0"
       inkscape:label="Spiral"
       sodipodi:nodetypes="ccccccccc" />
    <path
       style="fill:none;stroke:#000000;stroke-width:1px;stroke-linecap:butt;stroke-linejoin:miter;stroke-opacity:1"
       d="m 578.41335,453.74843 -20.85965,3.88909 -1.41422,10.25305 -32.17335,7.77817 -15.90991,8.13173 -14.84924,3.88909 -19.44544,12.72792 -10.6066,36.06244 120.20815,48.79037 27.57717,-38.3731 2.07843,-38.09798 -7.73528,-33.48402 -18.03123,-6.01041 z"
       id="Redoubt"
       inkscape:connector-curvature="0"
       inkscape:label="Redoubt"
       sodipodi:nodetypes="cccccccccccccc" />
    <path
       style="fill:none;stroke:#000000;stroke-width:1px;stroke-linecap:butt;stroke-linejoin:miter;stroke-opacity:1"
       d="m 562.14989,390.46237 16.26346,0.35356 22.62741,19.44543 37.47666,-4.24264 23.33453,3.18198 10.25305,18.38478 -17.32412,2.82843 -11.31371,21.2132 -43.13351,-5.3033 -41.0122,5.65685 4.5962,-20.85965 -4.5962,-21.56675 z"
       id="Morrow"
       inkscape:connector-curvature="0"
       inkscape:label="Morrow" />
    <path
       style="fill:none;stroke:#000000;stroke-width:1px;stroke-linecap:butt;stroke-linejoin:miter;stroke-opacity:1"
       d="m 556.13948,390.81593 1.76777,9.19239 -3.88909,7.77817 5.65686,23.33452 -4.94975,10.96016 -38.18377,-10.25305 -34.64823,-19.44544 -23.33452,-3.88908 -6.71752,-18.73833 43.13352,-16.26346 21.2132,8.13173 z"
       id="Bastion"
       inkscape:connector-curvature="0"
       inkscape:label="Bastion" />
    <path
       style="fill:none;stroke:#000000;stroke-width:1px;stroke-linecap:butt;stroke-linejoin:miter;stroke-opacity:1"
       d="m 472.70088,494.76062 21.92031,-12.02081 12.02082,-3.18198 13.08147,-7.77818 32.52692,-7.42462 3.53553,-16.97056 -39.59798,-11.31371 -36.06245,-19.44544 -25.80939,-3.88908 -7.07107,-20.5061 -32.52691,8.13173 -10.25305,35.35534 z"
       id="Necropolis"
       inkscape:connector-curvature="0"
       inkscape:label="Necropolis" />
    <path
       style="fill:none;stroke:#000000;stroke-width:1px;stroke-linecap:butt;stroke-linejoin:miter;stroke-opacity:1"
       d="m 420.02143,315.86261 25.10229,-6.36396 46.66905,10.25305 17.32411,21.2132 -14.49569,27.93072 -41.7193,16.97056 -39.24442,10.6066 -44.90128,-37.1231 12.02081,-21.56676 21.92031,-2.12132 z"
       id="Casinea"
       inkscape:connector-curvature="0"
       inkscape:label="Casinea" />
    <path
       style="fill:none;stroke:#000000;stroke-width:1px;stroke-linecap:butt;stroke-linejoin:miter;stroke-opacity:1"
       d="m 399.86889,435.0101 10.25304,-34.29468 -44.54772,-37.83021 -25.45585,10.25305 -3.88909,26.5165 -41.36574,5.3033 45.96194,27.93072 z"
       id="Sarvos"
       inkscape:connector-curvature="0"
       inkscape:label="Sarvos" />
    <path
       style="fill:none;stroke:#000000;stroke-width:1px;stroke-linecap:butt;stroke-linejoin:miter;stroke-opacity:1"
       d="m 274.71098,398.5941 -3.88908,11.66726 -7.42462,3.88909 -33.23402,48.08326 -62.93251,34.64823 8.83884,15.2028 33.94112,10.25305 18.73833,18.03122 36.416,4.24264 31.1127,-16.26345 18.38478,19.44543 63.99316,-40.30508 -39.95153,-71.41779 z"
       id="Madruga"
       inkscape:connector-curvature="0"
       inkscape:label="Madruga" />
    <path
       style="fill:none;stroke:#000000;stroke-width:1px;stroke-linecap:butt;stroke-linejoin:miter;stroke-opacity:1"
       d="m 289.56023,629.81802 -102.17693,-2.12132 -66.82159,-39.59798 19.09188,-35.70889 59.39697,-1.41422 15.20279,-17.32411 10.60661,11.31371 41.01219,3.88908 30.75914,-15.55635 12.37437,15.2028 z"
       id="Feroz"
       inkscape:connector-curvature="0"
       inkscape:label="Feroz" />
    <path
       style="fill:none;stroke:#000000;stroke-width:1px;stroke-linecap:butt;stroke-linejoin:miter;stroke-opacity:1"
       d="m 71.064232,450.2129 -54.447223,111.36932 25.455845,31.46625 73.892656,-6.01041 19.79899,-38.89087 59.75053,-1.06066 14.84924,-16.61701 -6.71752,-5.3033 -31.1127,-9.54595 -10.6066,-18.03122 z"
       id="Segura"
       inkscape:connector-curvature="0"
       inkscape:label="Segura" />
    <path
       style="fill:none;stroke:#000000;stroke-width:1px;stroke-linecap:butt;stroke-linejoin:miter;stroke-opacity:1"
       d="m 3.5355339,308.79154 0.3535534,84.85281 68.5893577,17.67767 38.537315,-30.40559 108.5409,-3.53553 9.19238,-2.47488 L 214.96046,360.41034 187.3833,356.8748 161.5739,339.90424 86.974134,316.56972 41.012193,284.74991 z"
       id="Liathaven"
       inkscape:connector-curvature="0"
       inkscape:label="Liathaven" />
    <path
       style="fill:none;stroke:#000000;stroke-width:1px;stroke-linecap:butt;stroke-linejoin:miter;stroke-opacity:1"
       d="m 36.062446,227.12071 7.424621,54.09367 44.547727,31.11269 72.831996,22.62742 28.28427,-21.92031 -42.4264,-14.49569 -10.25305,-9.19239 5.3033,-19.44543 -35.70889,-44.54773 z"
       id="Bregasland"
       inkscape:connector-curvature="0"
       inkscape:label="Bregasland" />
    <path
       style="fill:none;stroke:#000000;stroke-width:1px;stroke-linecap:butt;stroke-linejoin:miter;stroke-opacity:1"
       d="m 265.5186,381.62354 -37.83022,-1.06066 -8.13172,1.41421 -28.99138,-0.7071 -77.42819,3.88908 -37.830218,29.34493 -2.474873,32.52692 90.509671,46.66904 61.87184,-33.23401 35.35534,-50.91169 6.71751,-2.82843 3.88909,-10.25305 z"
       id="Kharaman"
       inkscape:connector-curvature="0"
       inkscape:label="Kharaman" />
    <path
       style="fill:none;stroke:#000000;stroke-width:1px;stroke-linecap:butt;stroke-linejoin:miter;stroke-opacity:1"
       d="m 290.26733,401.77608 42.07286,-6.71751 6.01041,-25.10229 24.04163,-12.02082 12.02081,-19.79899 -27.93072,-21.2132 -27.57716,-2.47488 -8.83884,24.39519 -19.09188,5.65685 -3.88909,21.21321 -15.20279,13.43503 3.88908,13.78858 z"
       id="Tassato"
       inkscape:connector-curvature="0"
       inkscape:label="Tassato" />
    <path
       style="fill:none;stroke:#000000;stroke-width:1px;stroke-linecap:butt;stroke-linejoin:miter;stroke-opacity:1"
       d="m 195.51503,314.44839 -28.63783,23.68808 22.98097,15.55635 27.22361,3.18198 18.03122,18.38478 32.17336,2.12132 15.55635,-15.55635 3.18198,-19.09188 19.79899,-8.13173 7.07107,-20.85965 -25.45584,-9.54594 -67.5287,22.98097 z"
       id="path3983"
       inkscape:connector-curvature="0" />
    <path
       style="fill:none;stroke:#000000;stroke-width:1px;stroke-linecap:butt;stroke-linejoin:miter;stroke-opacity:1"
       d="m 224.85996,257.17275 -12.02082,11.66726 -67.17514,2.82842 -4.94975,18.03123 79.19596,32.17336 33.23402,-15.2028 -1.41422,-19.44544 -20.50609,-8.13172 z"
       id="Mitwold"
       inkscape:connector-curvature="0"
       inkscape:label="Mitwold" />
    <path
       style="fill:none;stroke:#000000;stroke-width:1px;stroke-linecap:butt;stroke-linejoin:miter;stroke-opacity:1"
       d="m 329.86531,239.84863 -91.92388,7.42462 -9.89949,7.42462 7.77817,20.85965 19.09188,8.83884 2.47488,19.79899 29.69848,-5.3033 31.46626,10.25304 26.16295,2.47488 3.18198,-31.1127 -21.21321,-19.79899 z"
       id="Upwold"
       inkscape:connector-curvature="0"
       inkscape:label="Upwold" />
    <path
       style="fill:none;stroke:#000000;stroke-width:1px;stroke-linecap:butt;stroke-linejoin:miter;stroke-opacity:1"
       d="m 379.71634,245.85904 19.09188,-3.88909 7.77818,4.94975 -1.41421,20.85965 12.02081,4.24264 24.74874,33.23402 -22.27387,6.36396 -15.9099,19.44543 -22.62741,2.47488 -29.69849,-19.44544 1.41421,-34.64823 -19.79899,-20.85965 3.18198,-19.09188 z"
       id="Miaren"
       inkscape:connector-curvature="0"
       inkscape:label="Miaren" />
  </g>
</svg>
