<?xml version="1.0" encoding="UTF-8" standalone="no"?>
<svg
   xmlns:dc="http://purl.org/dc/elements/1.1/"
   xmlns:cc="http://creativecommons.org/ns#"
   xmlns:rdf="http://www.w3.org/1999/02/22-rdf-syntax-ns#"
   xmlns:svg="http://www.w3.org/2000/svg"
   xmlns="http://www.w3.org/2000/svg"
   xmlns:xlink="http://www.w3.org/1999/xlink"
   xmlns:sodipodi="http://sodipodi.sourceforge.net/DTD/sodipodi-0.dtd"
   xmlns:inkscape="http://www.inkscape.org/namespaces/inkscape"
   viewBox="0 0 512 512"
   id="svg4755"
   version="1.1"
   inkscape:version="0.48.4 r9939"
   width="100%"
   height="100%"
   sodipodi:docname="weirwood1.svg">
  <metadata
     id="metadata4843">
    <rdf:RDF>
      <cc:Work
         rdf:about="">
        <dc:format>image/svg+xml</dc:format>
        <dc:type
           rdf:resource="http://purl.org/dc/dcmitype/StillImage" />
        <dc:title />
      </cc:Work>
    </rdf:RDF>
  </metadata>
  <sodipodi:namedview
     pagecolor="#ffffff"
     bordercolor="#666666"
     borderopacity="1"
     objecttolerance="10"
     gridtolerance="10"
     guidetolerance="10"
     inkscape:pageopacity="0"
     inkscape:pageshadow="2"
     inkscape:window-width="844"
     inkscape:window-height="732"
     id="namedview4841"
     showgrid="false"
     inkscape:zoom="0.64"
     inkscape:cx="176.36466"
     inkscape:cy="335.06362"
     inkscape:window-x="725"
     inkscape:window-y="122"
     inkscape:window-maximized="0"
     inkscape:current-layer="g4835" />
  <defs
     id="defs4759">
    <path
       id="0"
       d="m59.917 312.06l180.32-178.58c44.02-49.619 131.92 25.419 91.73 75.28l-181.17 196.23"
       stroke="#000"
       fill="#fff" />
    <path
       id="1"
       d="m230.36 280.58c0 36.27-25.942 65.67-57.942 65.67-32 0-57.942-29.401-57.942-65.67 0-36.27 25.942-65.67 57.942-65.67 32 0 57.942 29.401 57.942 65.67z"
       stroke-linejoin="round"
       stroke="#000"
       color="#000"
       fill="#fff"
       stroke-linecap="round" />
  </defs>
  <g
     transform="translate(-31.451 71.64)"
     id="g4763"
     style="fill:none;stroke-width:15;stroke-miterlimit:4;stroke-dasharray:none">
    <use
       stroke-width="18"
       xlink:href="#0"
       id="use4765"
       style="fill:none;stroke-width:15;stroke-miterlimit:4;stroke-dasharray:none" />
    <g
       fill="#fff"
       stroke="#000"
       stroke-linejoin="round"
       stroke-linecap="round"
       color="#000"
       id="g4767"
       style="fill:none;stroke-width:15;stroke-miterlimit:4;stroke-dasharray:none">
      <path
         transform="matrix(1.11515 0 0 1-82.71 73.74)"
         d="m230.36 280.58c0 36.27-25.942 65.67-57.942 65.67-32 0-57.942-29.401-57.942-65.67 0-36.27 25.942-65.67 57.942-65.67 32 0 57.942 29.401 57.942 65.67z"
         stroke-width="17.05"
         id="path4769"
         style="fill:none;stroke-width:14.20445629000000000;stroke-miterlimit:4;stroke-dasharray:none" />
      <path
         transform="matrix(1.54204 0 0 1.53922-48.37-186.86)"
         d="m125.14918 358.04666a24.831184 25.327808 0 1 1 -49.662371 0 24.831184 25.327808 0 1 1 49.662371 0z"
         stroke-width="11.684"
         id="path4771"
         style="fill:none;stroke-width:9.73628079999999940;stroke-miterlimit:4;stroke-dasharray:none" />
    </g>
  </g>
  <g
     transform="matrix(1.11456 0 0 1.11456 90.95 24.322)"
     id="g4773"
     style="stroke-width:13.45822566999999900;stroke-miterlimit:4;stroke-dasharray:none;fill:none">
    <path
       d="m59.917 312.06l180.32-178.58c21.378-24.09 53.1-18.795 75.48-1.257 23.706 18.579 36.925 50.89 16.249 76.54l-181.17 196.23"
       fill="#fff"
       stroke="#000"
       stroke-width="16.15"
       id="path4775"
       style="fill:none;stroke-width:13.45822566999999900;stroke-miterlimit:4;stroke-dasharray:none" />
    <use
       transform="matrix(1.11515 0 0 1-82.71 73.74)"
       stroke-width="15.293"
       xlink:href="#1"
       id="use4777"
       style="fill:none;stroke-width:12.74445188000000000;stroke-miterlimit:4;stroke-dasharray:none" />
    <g
       stroke="#000"
       stroke-linejoin="round"
       stroke-linecap="round"
       color="#000"
       id="g4779"
       style="stroke-width:13.45822566999999900;stroke-miterlimit:4;stroke-dasharray:none;fill:none">
      <path
         transform="matrix(1.45255 0 0 1.45963-39.66-166.75)"
         d="m125.15 358.05c0 13.988-11.12 25.328-24.831 25.328-13.714 0-24.831-11.34-24.831-25.328 0-13.988 11.12-25.328 24.831-25.328 13.714 0 24.831 11.34 24.831 25.328z"
         fill="#fff"
         stroke-width="11.09"
         id="path4781"
         style="fill:none;stroke-width:9.24274285000000080;stroke-miterlimit:4;stroke-dasharray:none" />
      <g
         stroke-width="18"
         id="g4783"
         style="fill:none;stroke-width:13.45822566999999900;stroke-miterlimit:4;stroke-dasharray:none">
        <path
           d="m219.51 423.1c0 3.84-2.668 6.953-5.959 6.953-3.291 0-5.959-3.113-5.959-6.953 0-3.84 2.668-6.953 5.959-6.953 3.291 0 5.959 3.113 5.959 6.953z"
           transform="matrix(.89721 0 0 .89721-86.06-22.713)"
           id="path4785"
           style="fill:none;stroke-width:15.00008434000000100;stroke-miterlimit:4;stroke-dasharray:none" />
        <path
           transform="matrix(.89721 0 0 .89721-208.75-8.149)"
           d="m219.50767 423.10437a5.959485 6.952732 0 1 1 -11.91897 0 5.959485 6.952732 0 1 1 11.91897 0z"
           id="path4787"
           style="fill:none;stroke-width:15.00008434000000100;stroke-miterlimit:4;stroke-dasharray:none" />
      </g>
    </g>
  </g>
  <g
     transform="matrix(.71213 0 0 .71213 257.76 194.26)"
     id="g4789"
     style="stroke-width:21.06356985000000000;stroke-miterlimit:4;stroke-dasharray:none;fill:none">
    <use
       stroke-width="25.276"
       xlink:href="#0"
       id="use4791"
       style="fill:none;stroke-width:21.06356985000000000;stroke-miterlimit:4;stroke-dasharray:none" />
    <use
       transform="matrix(1.11515 0 0 1-82.71 73.74)"
       stroke-width="23.936"
       xlink:href="#1"
       id="use4793"
       style="fill:none;stroke-width:19.94643715000000100;stroke-miterlimit:4;stroke-dasharray:none" />
    <g
       stroke="#000"
       stroke-linecap="round"
       stroke-width="25.276"
       id="g4795"
       style="stroke-width:21.06356985000000000;stroke-miterlimit:4;stroke-dasharray:none;fill:none">
      <path
         transform="translate(14.824 2.263)"
         d="m125.15 358.05c0 13.988-11.12 25.328-24.831 25.328-13.714 0-24.831-11.34-24.831-25.328 0-13.988 11.12-25.328 24.831-25.328 13.714 0 24.831 11.34 24.831 25.328z"
         fill="#fff"
         stroke-linejoin="round"
         color="#000"
         id="path4797"
         style="fill:none;stroke-width:21.06356985000000000;stroke-miterlimit:4;stroke-dasharray:none" />
      <path
         d="m320.57 156.76l-91.42 95.69"
         fill="#800000"
         id="path4799"
         style="fill:none;stroke-width:21.06356985000000000;stroke-miterlimit:4;stroke-dasharray:none" />
    </g>
  </g>
  <g
     transform="matrix(.73397 0 0 .73397 1.725 54.52)"
     id="g4801"
     style="stroke-width:20.43680258999999900;stroke-miterlimit:4;stroke-dasharray:none;fill:none">
    <use
       stroke-width="24.524"
       xlink:href="#0"
       id="use4803"
       style="fill:none;stroke-width:20.43680258999999900;stroke-miterlimit:4;stroke-dasharray:none" />
    <use
       transform="matrix(1.11515 0 0 1-82.71 73.74)"
       stroke-width="23.22"
       xlink:href="#1"
       id="use4805"
       style="fill:none;stroke-width:19.35291128000000100;stroke-miterlimit:4;stroke-dasharray:none" />
    <g
       color="#000"
       id="g4807"
       style="stroke-width:20.43680258999999900;stroke-miterlimit:4;stroke-dasharray:none;fill:none">
      <path
         d="m320.97 361.35c0 4.073-2.358 7.374-5.267 7.374-2.909 0-5.267-3.302-5.267-7.374 0-4.073 2.358-7.374 5.267-7.374 2.909 0 5.267 3.302 5.267 7.374z"
         transform="matrix(4.67896 0 0 3.84719-1368.09-1033.63)"
         stroke="#000"
         stroke-linejoin="round"
         stroke-linecap="round"
         stroke-width="5.78"
         id="path4809"
         style="stroke-width:4.81688708999999980;stroke-miterlimit:4;stroke-dasharray:none;fill:none" />
      <path
         d="m320.97 361.35c0 4.073-2.358 7.374-5.267 7.374-2.909 0-5.267-3.302-5.267-7.374 0-4.073 2.358-7.374 5.267-7.374 2.909 0 5.267 3.302 5.267 7.374"
         transform="matrix(3.5547 0 0 2.90741-1013.59-692.72)"
         fill="#fff"
         id="path4811"
         style="fill:none;fill-opacity:1;stroke-width:6.35708960000000010;stroke-miterlimit:4;stroke-dasharray:none" />
    </g>
  </g>
  <g
     transform="translate(77.75-77.75)"
     id="g4813"
     style="stroke-width:15;stroke-miterlimit:4;stroke-dasharray:none;fill:none">
    <use
       stroke-width="18"
       xlink:href="#0"
       id="use4815"
       style="fill:none;stroke-width:15;stroke-miterlimit:4;stroke-dasharray:none" />
    <use
       transform="matrix(1.11515 0 0 1-82.71 73.74)"
       stroke-width="17.05"
       xlink:href="#1"
       id="use4817"
       style="fill:none;stroke-width:14.20445629000000000;stroke-miterlimit:4;stroke-dasharray:none" />
    <g
       stroke="#000"
       stroke-linecap="round"
       id="g4819"
       style="fill:none;stroke-width:15;stroke-miterlimit:4;stroke-dasharray:none">
      <path
         transform="matrix(1.45255 0 0 1.40424-44.33-159.13)"
         d="m125.15 358.05c0 13.988-11.12 25.328-24.831 25.328-13.714 0-24.831-11.34-24.831-25.328 0-13.988 11.12-25.328 24.831-25.328 13.714 0 24.831 11.34 24.831 25.328z"
         fill="#fff"
         stroke-linejoin="round"
         color="#000"
         stroke-width="12.603"
         id="path4821"
         style="fill:none;stroke-width:10.50279875000000000;stroke-miterlimit:4;stroke-dasharray:none" />
      <path
         d="m297.97 125.13l-123.66 129.12"
         fill="#800000"
         stroke-width="18"
         id="path4823"
         style="fill:none;stroke-width:15;stroke-miterlimit:4;stroke-dasharray:none" />
      <path
         d="m175.58 282.34c0 3.879-2.516 7.02-5.619 7.02-3.103 0-5.619-3.144-5.619-7.02 0-3.879 2.516-7.02 5.619-7.02 3.103 0 5.619 3.144 5.619 7.02z"
         transform="matrix(1.25 0 0 1-114.45 58.13)"
         stroke-linejoin="round"
         color="#000"
         stroke-width="16.1"
         id="path4825"
         style="fill:none;stroke-width:13.41640786000000000;stroke-miterlimit:4;stroke-dasharray:none" />
    </g>
  </g>
  <g
     transform="matrix(.61968 0 0 .61968 238.52 130.18)"
     id="g4827"
     style="stroke-width:24.20604183000000000;stroke-miterlimit:4;stroke-dasharray:none;fill:none">
    <use
       stroke-width="29.05"
       xlink:href="#0"
       id="use4829"
       style="fill:none;stroke-width:24.20604183000000000;stroke-miterlimit:4;stroke-dasharray:none" />
    <use
       transform="matrix(1.11515 0 0 1-82.71 73.74)"
       stroke-width="27.506"
       xlink:href="#1"
       id="use4831"
       style="fill:none;stroke-width:22.92224420999999900;stroke-miterlimit:4;stroke-dasharray:none" />
    <path
       d="m320.97 361.35c0 4.073-2.358 7.374-5.267 7.374-2.909 0-5.267-3.302-5.267-7.374 0-4.073 2.358-7.374 5.267-7.374 2.909 0 5.267 3.302 5.267 7.374z"
       transform="matrix(3.15026 0 0 2.64613-888.67-600.97)"
       stroke="#000"
       stroke-linejoin="round"
       stroke-linecap="round"
       color="#000"
       stroke-width="10.06"
       id="path4833"
       style="fill:none;stroke-width:8.38387881000000060;stroke-miterlimit:4;stroke-dasharray:none" />
  </g>
  <g
     id="g4835"
     style="fill:#000000;fill-opacity:0;stroke:#000000;stroke-width:6;stroke-linecap:round;stroke-miterlimit:4;stroke-dasharray:none"
     transform="matrix(0.84754653,0,0,0.87952334,41.244501,15.441416)" />
</svg>
